# xmcd
#
# Track frame offsets:
#	151
#	12378
#	22669
#	33202
#	47383
#	61066
#	77355
#	90934
#	102571
#	115064
#	127243
#	144386
#	155627
#	170902
#	186427
#
# Disc length: 2683 seconds
#
# Revision: 1
# Processed by: cddbd v1.5.2PL0 Copyright (c) Steve Scherf et al.
# Submitted via: audiograbber 1.83.01
#
DISCID=b80a790f
DTITLE=Marion Rivers - Friends Forever
DYEAR=2007
DGENRE=Rock and Roll
TTITLE0=Danny Sang Bass
TTITLE1=Stupid Cupid
TTITLE2=Grandma's Feather Bed
TTITLE3=Bye Bye Love
TTITLE4=Love Me a Little Bit Longer
TTITLE5=Everybody's Somebody's Fool
TTITLE6=The Bosanova
TTITLE7=Rock 'n' Roll Waltz
TTITLE8=Then He Kissed Me
TTITLE9=Lipstick On Your Collar
TTITLE10=The Great Snowman
TTITLE11=Kansas City
TTITLE12=Save the Last Dance for Me
TTITLE13=Walk Right Back
TTITLE14=Whispering Hope
EXTD=Vocals and Rhythm Guitar  -  Marion Rivers\nBacking Vocals and Keyboards  -  D
EXTD=aniel O'Neil\nProducer  -  Frank Douglas\n\nCustom Records  -  New Zealand
EXTT0=Johnny Cash, Danny O'neil
EXTT1=Connie Francis
EXTT2=John Denver
EXTT3=Everly Brothers
EXTT4=Heather Mills
EXTT5=Connie Francis
EXTT6=Eydie Gorme
EXTT7=Teresa Brewer
EXTT8=The Crystals
EXTT9=Connie Franis
EXTT10=John D Loudermilk
EXTT11=Roy Drusky
EXTT12=The Drifters
EXTT13=Everly Brothers
EXTT14=Jim Ed Browns and the Browns
PLAYORDER=
